<?xml version="1.0"?>
<svg width="40" height="40" xmlns="http://www.w3.org/2000/svg" xmlns:svg="http://www.w3.org/2000/svg">
 <g class="layer">
  <title>Layer 1</title>
  <rect fill="#ff7f00" height="40" id="svg_2" stroke="#000000" stroke-width="2" width="40" x="0" y="0"/>
  <ellipse cx="31.2" cy="10.9" fill="#000000" id="svg_3" rx="8" ry="8.5" stroke="#777777" transform="translate(-2 0)"/>
  <ellipse cx="27.7" cy="8.9" fill="#ffffff" id="svg_4" rx="3" ry="3" stroke="#777777" stroke-width="0"/>
  <path d="m16.73,23.94c-0.04,0.46 -0.19,0.66 -0.41,0.84c-0.22,0.18 -0.42,0.31 -0.59,0.47c-0.22,0.2 -0.4,0.41 -0.51,0.56c-0.18,0.23 -0.31,0.47 -0.4,0.63c-0.13,0.24 -0.28,0.48 -0.41,0.63c-0.2,0.25 -0.36,0.42 -0.61,0.69c-0.09,0.1 -0.28,0.29 -0.46,0.49c-0.18,0.19 -0.39,0.47 -0.51,0.65c-0.11,0.17 -0.19,0.34 -0.47,0.65c-0.15,0.17 -0.34,0.32 -0.53,0.49c-0.09,0.09 -0.36,0.36 -0.52,0.55c-0.15,0.19 -0.28,0.39 -0.51,0.64c-0.2,0.22 -0.35,0.34 -0.53,0.51c-0.22,0.21 -0.38,0.43 -0.58,0.68c-0.11,0.14 -0.3,0.36 -0.43,0.51c-0.21,0.24 -0.35,0.39 -0.54,0.61c-0.17,0.19 -0.36,0.41 -0.56,0.56c-0.22,0.17 -0.5,0.33 -0.71,0.44c-0.26,0.13 -0.53,0.33 -0.66,0.46c-0.23,0.22 -0.47,0.36 -0.66,0.46c-0.28,0.15 -0.54,0.33 -0.74,0.44c-0.28,0.15 -0.64,0.26 -0.81,0.38c-0.25,0.17 -0.42,0.36 -0.69,0.49c-0.29,0.13 -0.56,0.19 -0.84,0.32c-0.26,0.12 -0.64,0.35 -0.49,0.53c0.15,0.19 0.58,0.02 0.83,0.02c0.36,0 0.69,0 0.93,0c0.43,0 0.72,0 0.91,-0.02c0.45,-0.04 0.66,-0.14 1.02,-0.22c0.28,-0.05 0.59,-0.03 0.9,-0.09c0.25,-0.05 0.5,-0.14 0.92,-0.19c0.28,-0.03 0.59,-0.02 0.92,-0.02c0.24,0 0.6,0 0.93,0c0.27,0 0.52,0 0.94,0c0.28,0 0.56,0 0.88,0c0.31,0 0.64,0 0.97,0c0.25,0 0.6,0 0.87,0c0.35,0 0.64,0 0.97,-0.08c0.26,-0.06 0.53,-0.14 0.79,-0.32c0.24,-0.16 0.45,-0.36 0.69,-0.46c0.25,-0.1 0.59,-0.19 0.81,-0.3c0.3,-0.15 0.52,-0.27 0.79,-0.37c0.28,-0.11 0.57,-0.22 0.9,-0.36c0.18,-0.08 0.46,-0.22 0.64,-0.33c0.31,-0.2 0.46,-0.37 0.63,-0.56c0.21,-0.23 0.48,-0.39 0.71,-0.5c0.25,-0.12 0.5,-0.33 0.61,-0.46c0.21,-0.25 0.39,-0.41 0.48,-0.65c0.07,-0.2 0.31,-0.32 0.53,-0.49c0.22,-0.17 0.18,-0.44 0.18,-0.67c0,-0.24 0,-0.45 0,-0.69c0,-0.25 0.12,-0.49 0,-0.71c-0.11,-0.2 -0.34,-0.32 -0.35,-0.55c-0.01,-0.26 -0.16,-0.45 -0.29,-0.65c-0.13,-0.2 -0.29,-0.41 -0.4,-0.63c-0.12,-0.23 -0.25,-0.4 -0.34,-0.65c-0.07,-0.19 0.01,-0.47 -0.04,-0.65c-0.08,-0.27 -0.22,-0.49 -0.41,-0.67c-0.17,-0.17 -0.2,-0.37 -0.35,-0.59c-0.12,-0.17 -0.53,-0.22 -0.62,-0.42c-0.1,-0.24 -0.27,-0.33 -0.52,-0.48c-0.27,-0.16 -0.41,-0.32 -0.54,-0.55c-0.12,-0.21 -0.17,-0.47 -0.44,-0.61c-0.26,-0.14 -0.57,-0.1 -0.75,-0.28l-0.3,-0.01l-0.32,0l-0.25,0.09" fill="#ff0000" id="svg_14" stroke="black"/>
 </g>
</svg>